<svg xmlns="http://www.w3.org/2000/svg" width="512" height="512" viewBox="0 0 512 512"><defs><linearGradient id="h" x2=".8" y2="1"><stop stop-color="#edffa5"/><stop offset=".5" stop-color="#c5ed79"/><stop offset="1" stop-color="#7aa641"/></linearGradient></defs><rect width="512" height="512" fill="#122c26"/><g fill="none" stroke="#29453b" stroke-width="2"><path d="M-40 370Q80 130 310 80T580 190"/><path d="M-40 410Q80 170 310 120T580 230"/><path d="M-40 450Q80 210 310 160T580 270"/></g><path d="M131 318Q103 280 139 240L203 166Q230 138 273 157L344 195Q374 213 379 255L384 304Q386 344 343 358L210 380Q159 387 131 348Z" fill="#071d17" opacity=".65"/><path d="M127 295Q104 261 140 218L201 148Q225 125 265 140L340 178Q373 195 377 238L381 281Q386 322 340 335L207 360Q155 367 132 328Z" fill="url(#h)"/><path d="M142 237Q197 227 230 198Q269 164 340 191" fill="none" stroke="#f1ffb9" stroke-width="13" stroke-linecap="round"/><path d="M157 274Q228 259 259 222Q285 203 346 220" fill="none" stroke="#6f9639" stroke-width="17" stroke-linecap="round"/><ellipse cx="268" cy="291" rx="18" ry="16" fill="#749346"/><ellipse cx="268" cy="288" rx="10" ry="9" fill="#20352a"/><path d="M264 285l8 6m-8 0l8-6" stroke="#8aa761" stroke-width="2"/><g fill="#f4ffe0" opacity=".4"><circle cx="181" cy="302" r="3"/><circle cx="206" cy="324" r="2"/><circle cx="316" cy="253" r="3"/><circle cx="308" cy="307" r="2"/></g></svg>